<svg xmlns="http://www.w3.org/2000/svg" width="142.88mm" height="41.39mm" viewBox="0 0 405 117.33">
  <defs>
    <style>
      .baab70a1-055a-4927-aa11-fdb600773a98 {
        fill: #fff;
        stroke: #1d1d1b;
        stroke-miterlimit: 10;
      }

      .\37 f392c58-0736-4c53-a9a4-85270dec18cd {
        fill: #1d1d1b;
      }
    </style>
  </defs>
  <title>3 Tier</title>
  <g id="3ebb761f-5918-4526-979d-ac6ebdc4dcf1" data-name="Ebene 1">
    <rect class="baab70a1-055a-4927-aa11-fdb600773a98" x="0.5" y="0.5" width="404" height="35.67"/>
    <rect class="baab70a1-055a-4927-aa11-fdb600773a98" x="0.5" y="41.17" width="404" height="35.67"/>
    <rect class="baab70a1-055a-4927-aa11-fdb600773a98" x="0.5" y="81.17" width="202" height="35.67"/>
    <rect class="baab70a1-055a-4927-aa11-fdb600773a98" x="208.17" y="81.17" width="196.33" height="35.67"/>
  </g>
  <g id="64064d5a-d6f3-4361-9c5c-36e987f1a691" data-name="Ebene 2">
    <g>
      <path class="7f392c58-0736-4c53-a9a4-85270dec18cd" d="M259.05,77.64c-.06-1.13-.13-2.48-.12-3.49h0c-.28.95-.61,2-1,3.07l-1.43,3.92h-.79l-1.31-3.85c-.38-1.14-.71-2.18-.94-3.14h0c0,1-.08,2.36-.16,3.57L253,81.19h-1l.56-8.08h1.33L255.3,77c.34,1,.61,1.88.82,2.72h0c.2-.82.49-1.7.85-2.72l1.44-3.91h1.33l.5,8.08h-1Z" transform="translate(-81.5 -60.5)"/>
      <path class="7f392c58-0736-4c53-a9a4-85270dec18cd" d="M265.14,81.19l-.08-.73h0a2.16,2.16,0,0,1-1.77.86,1.65,1.65,0,0,1-1.77-1.67c0-1.4,1.25-2.17,3.49-2.16v-.12A1.2,1.2,0,0,0,263.64,76a2.89,2.89,0,0,0-1.51.43l-.24-.7a3.6,3.6,0,0,1,1.91-.52c1.77,0,2.21,1.21,2.21,2.37V79.8a8.14,8.14,0,0,0,.1,1.39Zm-.16-3c-1.15,0-2.46.18-2.46,1.31a.93.93,0,0,0,1,1,1.44,1.44,0,0,0,1.4-1,1.11,1.11,0,0,0,.06-.34Z" transform="translate(-81.5 -60.5)"/>
      <path class="7f392c58-0736-4c53-a9a4-85270dec18cd" d="M268.89,73.75a.65.65,0,0,1-1.31,0,.64.64,0,0,1,.66-.66A.63.63,0,0,1,268.89,73.75Zm-1.18,7.44v-5.8h1.06v5.8Z" transform="translate(-81.5 -60.5)"/>
      <path class="7f392c58-0736-4c53-a9a4-85270dec18cd" d="M270.52,77c0-.6,0-1.09,0-1.57h.94l.06,1h0a2.13,2.13,0,0,1,1.92-1.09c.8,0,2.05.48,2.05,2.47v3.47H274.4V77.84c0-.94-.35-1.71-1.34-1.71a1.5,1.5,0,0,0-1.42,1.08,1.52,1.52,0,0,0-.07.49v3.49h-1.06Z" transform="translate(-81.5 -60.5)"/>
      <path class="7f392c58-0736-4c53-a9a4-85270dec18cd" d="M281.06,78.64l-.84,2.54h-1.08l2.75-8.08h1.26l2.76,8.08h-1.12l-.86-2.54Zm2.65-.82-.79-2.33c-.18-.53-.3-1-.42-1.48h0c-.12.48-.25,1-.41,1.46l-.79,2.34Z" transform="translate(-81.5 -60.5)"/>
      <path class="7f392c58-0736-4c53-a9a4-85270dec18cd" d="M291.06,81a3.89,3.89,0,0,1-1.67.34,2.76,2.76,0,0,1-2.89-3,3,3,0,0,1,3.12-3.08,3.52,3.52,0,0,1,1.46.3l-.24.82a2.45,2.45,0,0,0-1.22-.28,2.19,2.19,0,0,0,0,4.37,3,3,0,0,0,1.3-.29Z" transform="translate(-81.5 -60.5)"/>
      <path class="7f392c58-0736-4c53-a9a4-85270dec18cd" d="M293.73,73.71v1.67h1.51v.8h-1.51v3.13c0,.72.2,1.13.79,1.13a2.36,2.36,0,0,0,.61-.07l0,.79a2.58,2.58,0,0,1-.94.14,1.46,1.46,0,0,1-1.14-.44,2.15,2.15,0,0,1-.41-1.51V76.19h-.9v-.8h.9V74Z" transform="translate(-81.5 -60.5)"/>
      <path class="7f392c58-0736-4c53-a9a4-85270dec18cd" d="M297.6,73.75a.65.65,0,0,1-1.31,0,.64.64,0,0,1,.66-.66A.63.63,0,0,1,297.6,73.75Zm-1.18,7.44v-5.8h1.06v5.8Z" transform="translate(-81.5 -60.5)"/>
      <path class="7f392c58-0736-4c53-a9a4-85270dec18cd" d="M299.64,75.38l1.14,3.26a14.87,14.87,0,0,1,.47,1.49h0c.13-.48.3-1,.49-1.49l1.13-3.26H304l-2.28,5.8h-1l-2.21-5.8Z" transform="translate(-81.5 -60.5)"/>
      <path class="7f392c58-0736-4c53-a9a4-85270dec18cd" d="M306.18,73.75a.65.65,0,0,1-1.31,0,.64.64,0,0,1,.66-.66A.63.63,0,0,1,306.18,73.75ZM305,81.19v-5.8h1.05v5.8Z" transform="translate(-81.5 -60.5)"/>
      <path class="7f392c58-0736-4c53-a9a4-85270dec18cd" d="M309.08,73.71v1.67h1.51v.8h-1.51v3.13c0,.72.2,1.13.79,1.13a2.36,2.36,0,0,0,.61-.07l0,.79a2.58,2.58,0,0,1-.94.14,1.46,1.46,0,0,1-1.14-.44,2.15,2.15,0,0,1-.41-1.51V76.19h-.9v-.8h.9V74Z" transform="translate(-81.5 -60.5)"/>
      <path class="7f392c58-0736-4c53-a9a4-85270dec18cd" d="M312.28,75.38l1.27,3.43c.13.38.28.84.37,1.19h0c.11-.35.23-.79.37-1.21l1.15-3.41h1.12L315,79.52c-.75,2-1.27,3-2,3.63a2.85,2.85,0,0,1-1.3.68l-.26-.89a2.8,2.8,0,0,0,.92-.52,3.2,3.2,0,0,0,.89-1.18.76.76,0,0,0,.08-.25.93.93,0,0,0-.07-.28l-2.15-5.35Z" transform="translate(-81.5 -60.5)"/>
    </g>
    <g>
      <path class="7f392c58-0736-4c53-a9a4-85270dec18cd" d="M247.63,121.69V113.6h1.14l2.59,4.09a22.86,22.86,0,0,1,1.45,2.63h0c-.1-1.08-.12-2.06-.12-3.32V113.6h1v8.08h-1.06l-2.57-4.1a25.64,25.64,0,0,1-1.51-2.7h0c.06,1,.08,2,.08,3.33v3.45Z" transform="translate(-81.5 -60.5)"/>
      <path class="7f392c58-0736-4c53-a9a4-85270dec18cd" d="M256.08,119a1.86,1.86,0,0,0,2,2,3.81,3.81,0,0,0,1.61-.3l.18.76a4.7,4.7,0,0,1-1.93.36,2.7,2.7,0,0,1-2.85-2.93c0-1.75,1-3.13,2.72-3.13a2.46,2.46,0,0,1,2.4,2.73,4,4,0,0,1,0,.49Zm3.09-.76a1.5,1.5,0,0,0-1.46-1.71,1.75,1.75,0,0,0-1.62,1.71Z" transform="translate(-81.5 -60.5)"/>
      <path class="7f392c58-0736-4c53-a9a4-85270dec18cd" d="M264.71,121.69l-.08-.73h0a2.16,2.16,0,0,1-1.77.86,1.65,1.65,0,0,1-1.77-1.67c0-1.4,1.25-2.17,3.49-2.16v-.12a1.2,1.2,0,0,0-1.32-1.34,2.89,2.89,0,0,0-1.51.43l-.24-.7a3.6,3.6,0,0,1,1.91-.52c1.77,0,2.21,1.21,2.21,2.37v2.17a8.14,8.14,0,0,0,.1,1.39Zm-.16-3c-1.15,0-2.46.18-2.46,1.31a.93.93,0,0,0,1,1,1.44,1.44,0,0,0,1.4-1,1.11,1.11,0,0,0,.06-.34Z" transform="translate(-81.5 -60.5)"/>
      <path class="7f392c58-0736-4c53-a9a4-85270dec18cd" d="M267.28,117.69c0-.68,0-1.27,0-1.81h.92l0,1.14h0a1.74,1.74,0,0,1,1.61-1.27,1.15,1.15,0,0,1,.3,0v1a1.59,1.59,0,0,0-.36,0,1.48,1.48,0,0,0-1.42,1.36,3,3,0,0,0,0,.49v3.09h-1Z" transform="translate(-81.5 -60.5)"/>
      <path class="7f392c58-0736-4c53-a9a4-85270dec18cd" d="M271.68,121.69v-5h-.82v-.8h.82v-.25a2.62,2.62,0,0,1,.82-2,2.76,2.76,0,0,1,1.86-.59,3.73,3.73,0,0,1,1.74.38v8.26h-1V114a1.87,1.87,0,0,0-.86-.16c-1.1,0-1.46.8-1.46,1.74v.29h1.36v.8h-1.36v5Z" transform="translate(-81.5 -60.5)"/>
      <path class="7f392c58-0736-4c53-a9a4-85270dec18cd" d="M278.23,115.88l1.27,3.43c.13.38.28.84.37,1.19h0c.11-.35.23-.79.37-1.21l1.15-3.41h1.12L280.95,120c-.76,2-1.27,3-2,3.63a2.85,2.85,0,0,1-1.29.68l-.26-.89a2.79,2.79,0,0,0,.92-.52,3.19,3.19,0,0,0,.89-1.18.76.76,0,0,0,.08-.25.92.92,0,0,0-.07-.28l-2.15-5.35Z" transform="translate(-81.5 -60.5)"/>
      <path class="7f392c58-0736-4c53-a9a4-85270dec18cd" d="M285.93,120.42a3.7,3.7,0,0,0,1.87.53c1.07,0,1.69-.56,1.69-1.38s-.43-1.19-1.52-1.61c-1.32-.47-2.14-1.15-2.14-2.29a2.33,2.33,0,0,1,2.61-2.19,3.68,3.68,0,0,1,1.79.4l-.29.85a3.22,3.22,0,0,0-1.54-.38c-1.1,0-1.52.66-1.52,1.21,0,.76.49,1.13,1.61,1.56,1.37.53,2.06,1.19,2.06,2.37s-.92,2.33-2.83,2.33a4.17,4.17,0,0,1-2.06-.52Z" transform="translate(-81.5 -60.5)"/>
      <path class="7f392c58-0736-4c53-a9a4-85270dec18cd" d="M292.62,119a1.86,1.86,0,0,0,2,2,3.81,3.81,0,0,0,1.61-.3l.18.76a4.7,4.7,0,0,1-1.93.36,2.7,2.7,0,0,1-2.85-2.93c0-1.75,1-3.13,2.72-3.13a2.46,2.46,0,0,1,2.4,2.73,4,4,0,0,1,0,.49Zm3.09-.76a1.5,1.5,0,0,0-1.46-1.71,1.75,1.75,0,0,0-1.62,1.71Z" transform="translate(-81.5 -60.5)"/>
      <path class="7f392c58-0736-4c53-a9a4-85270dec18cd" d="M298,117.69c0-.68,0-1.27,0-1.81h.92l0,1.14h0a1.74,1.74,0,0,1,1.61-1.27,1.14,1.14,0,0,1,.3,0v1a1.58,1.58,0,0,0-.36,0,1.48,1.48,0,0,0-1.42,1.36,2.92,2.92,0,0,0,0,.49v3.09h-1Z" transform="translate(-81.5 -60.5)"/>
      <path class="7f392c58-0736-4c53-a9a4-85270dec18cd" d="M302.67,115.88l1.14,3.26a15.13,15.13,0,0,1,.47,1.49h0c.13-.48.3-1,.49-1.49l1.13-3.26H307l-2.28,5.8h-1l-2.21-5.8Z" transform="translate(-81.5 -60.5)"/>
      <path class="7f392c58-0736-4c53-a9a4-85270dec18cd" d="M309.21,114.25a.65.65,0,0,1-1.31,0,.64.64,0,0,1,.66-.66A.63.63,0,0,1,309.21,114.25ZM308,121.69v-5.8h1.05v5.8Z" transform="translate(-81.5 -60.5)"/>
      <path class="7f392c58-0736-4c53-a9a4-85270dec18cd" d="M315,121.47a3.89,3.89,0,0,1-1.67.34,2.76,2.76,0,0,1-2.89-3,3,3,0,0,1,3.12-3.08,3.53,3.53,0,0,1,1.46.3l-.24.82a2.46,2.46,0,0,0-1.22-.28,2.19,2.19,0,0,0,0,4.37,3,3,0,0,0,1.29-.29Z" transform="translate(-81.5 -60.5)"/>
      <path class="7f392c58-0736-4c53-a9a4-85270dec18cd" d="M316.73,119a1.86,1.86,0,0,0,2,2,3.82,3.82,0,0,0,1.61-.3l.18.76a4.7,4.7,0,0,1-1.93.36,2.7,2.7,0,0,1-2.85-2.93c0-1.75,1-3.13,2.72-3.13a2.46,2.46,0,0,1,2.4,2.73,4,4,0,0,1,0,.49Zm3.09-.76a1.5,1.5,0,0,0-1.46-1.71,1.75,1.75,0,0,0-1.62,1.71Z" transform="translate(-81.5 -60.5)"/>
    </g>
    <g>
      <path class="7f392c58-0736-4c53-a9a4-85270dec18cd" d="M133.08,162.19V154.1h1.14l2.59,4.09a22.86,22.86,0,0,1,1.45,2.63h0c-.1-1.08-.12-2.06-.12-3.32V154.1h1v8.08h-1.06l-2.57-4.1a25.64,25.64,0,0,1-1.51-2.7h0c.06,1,.08,2,.08,3.33v3.45Z" transform="translate(-81.5 -60.5)"/>
      <path class="7f392c58-0736-4c53-a9a4-85270dec18cd" d="M141.53,159.48a1.86,1.86,0,0,0,2,2,3.81,3.81,0,0,0,1.61-.3l.18.76a4.7,4.7,0,0,1-1.93.36,2.7,2.7,0,0,1-2.85-2.93c0-1.75,1-3.13,2.72-3.13a2.46,2.46,0,0,1,2.4,2.73,4,4,0,0,1,0,.49Zm3.09-.76a1.5,1.5,0,0,0-1.46-1.71,1.75,1.75,0,0,0-1.62,1.71Z" transform="translate(-81.5 -60.5)"/>
      <path class="7f392c58-0736-4c53-a9a4-85270dec18cd" d="M150.17,162.19l-.08-.73h0a2.16,2.16,0,0,1-1.77.86,1.65,1.65,0,0,1-1.77-1.67c0-1.4,1.25-2.17,3.49-2.16v-.12a1.2,1.2,0,0,0-1.32-1.34,2.89,2.89,0,0,0-1.51.43l-.24-.7a3.6,3.6,0,0,1,1.91-.52c1.77,0,2.21,1.21,2.21,2.37v2.17a8.14,8.14,0,0,0,.1,1.39Zm-.16-3c-1.15,0-2.46.18-2.46,1.31a.93.93,0,0,0,1,1,1.44,1.44,0,0,0,1.4-1,1.11,1.11,0,0,0,.06-.34Z" transform="translate(-81.5 -60.5)"/>
      <path class="7f392c58-0736-4c53-a9a4-85270dec18cd" d="M152.74,158.19c0-.68,0-1.27,0-1.81h.92l0,1.14h0a1.74,1.74,0,0,1,1.61-1.27,1.15,1.15,0,0,1,.3,0v1a1.59,1.59,0,0,0-.36,0,1.48,1.48,0,0,0-1.42,1.36,3,3,0,0,0,0,.49v3.09h-1Z" transform="translate(-81.5 -60.5)"/>
      <path class="7f392c58-0736-4c53-a9a4-85270dec18cd" d="M156.66,162.19c0-.4,0-1,0-1.5v-7h1v3.65h0a2.16,2.16,0,0,1,2-1.07c1.44,0,2.46,1.2,2.45,3,0,2.08-1.31,3.11-2.6,3.11a2.07,2.07,0,0,1-1.94-1.09h0l0,1Zm1.09-2.33a2,2,0,0,0,0,.38,1.63,1.63,0,0,0,1.58,1.24c1.1,0,1.76-.9,1.76-2.23,0-1.16-.6-2.16-1.73-2.16a1.68,1.68,0,0,0-1.61,1.3,2.08,2.08,0,0,0-.06.43Z" transform="translate(-81.5 -60.5)"/>
      <path class="7f392c58-0736-4c53-a9a4-85270dec18cd" d="M163.84,156.38l1.27,3.43c.13.38.28.84.37,1.19h0c.11-.35.23-.79.37-1.21l1.15-3.41h1.12l-1.58,4.14c-.76,2-1.27,3-2,3.63a2.85,2.85,0,0,1-1.29.68l-.26-.89a2.79,2.79,0,0,0,.92-.52,3.19,3.19,0,0,0,.89-1.18.76.76,0,0,0,.08-.25.92.92,0,0,0-.07-.28l-2.15-5.35Z" transform="translate(-81.5 -60.5)"/>
      <path class="7f392c58-0736-4c53-a9a4-85270dec18cd" d="M177.33,161.92a5.18,5.18,0,0,1-2.13.38,3.78,3.78,0,0,1-4-4.09,4,4,0,0,1,4.22-4.25,4.33,4.33,0,0,1,1.92.36l-.25.85a3.79,3.79,0,0,0-1.63-.34,3,3,0,0,0-3.15,3.33,2.94,2.94,0,0,0,3.11,3.25,4.18,4.18,0,0,0,1.7-.34Z" transform="translate(-81.5 -60.5)"/>
      <path class="7f392c58-0736-4c53-a9a4-85270dec18cd" d="M183.73,159.24a2.84,2.84,0,0,1-2.89,3.08,2.76,2.76,0,0,1-2.78-3,2.83,2.83,0,0,1,2.88-3.08A2.75,2.75,0,0,1,183.73,159.24Zm-4.61.06c0,1.27.73,2.23,1.76,2.23s1.76-.95,1.76-2.25c0-1-.49-2.23-1.74-2.23S179.12,158.19,179.12,159.3Z" transform="translate(-81.5 -60.5)"/>
      <path class="7f392c58-0736-4c53-a9a4-85270dec18cd" d="M185.06,158c0-.6,0-1.09,0-1.57H186l.06,1h0a2.13,2.13,0,0,1,1.92-1.09c.8,0,2.05.48,2.05,2.47v3.47h-1.06v-3.35c0-.94-.35-1.71-1.34-1.71a1.5,1.5,0,0,0-1.42,1.08,1.52,1.52,0,0,0-.07.49v3.49h-1.06Z" transform="translate(-81.5 -60.5)"/>
      <path class="7f392c58-0736-4c53-a9a4-85270dec18cd" d="M191.72,158c0-.6,0-1.09,0-1.57h.94l.06,1h0a2.13,2.13,0,0,1,1.92-1.09c.8,0,2.05.48,2.05,2.47v3.47h-1.06v-3.35c0-.94-.35-1.71-1.34-1.71a1.5,1.5,0,0,0-1.42,1.08,1.52,1.52,0,0,0-.07.49v3.49h-1.06Z" transform="translate(-81.5 -60.5)"/>
      <path class="7f392c58-0736-4c53-a9a4-85270dec18cd" d="M199,159.48a1.86,1.86,0,0,0,2,2,3.81,3.81,0,0,0,1.61-.3l.18.76a4.7,4.7,0,0,1-1.93.36,2.7,2.7,0,0,1-2.85-2.93c0-1.75,1-3.13,2.72-3.13a2.46,2.46,0,0,1,2.4,2.73,4,4,0,0,1,0,.49Zm3.09-.76A1.5,1.5,0,0,0,200.6,157a1.75,1.75,0,0,0-1.62,1.71Z" transform="translate(-81.5 -60.5)"/>
      <path class="7f392c58-0736-4c53-a9a4-85270dec18cd" d="M208.53,162a3.88,3.88,0,0,1-1.67.34,2.76,2.76,0,0,1-2.89-3,3,3,0,0,1,3.12-3.08,3.52,3.52,0,0,1,1.46.3l-.24.82a2.45,2.45,0,0,0-1.22-.28,2.19,2.19,0,0,0,0,4.37,3,3,0,0,0,1.3-.29Z" transform="translate(-81.5 -60.5)"/>
      <path class="7f392c58-0736-4c53-a9a4-85270dec18cd" d="M211.2,154.71v1.67h1.51v.8H211.2v3.13c0,.72.2,1.13.79,1.13a2.36,2.36,0,0,0,.61-.07l0,.79a2.58,2.58,0,0,1-.94.14,1.46,1.46,0,0,1-1.14-.44,2.15,2.15,0,0,1-.41-1.51v-3.17h-.9v-.8h.9V155Z" transform="translate(-81.5 -60.5)"/>
      <path class="7f392c58-0736-4c53-a9a4-85270dec18cd" d="M215.07,154.75a.65.65,0,0,1-1.31,0,.64.64,0,0,1,.66-.66A.63.63,0,0,1,215.07,154.75Zm-1.18,7.44v-5.8H215v5.8Z" transform="translate(-81.5 -60.5)"/>
      <path class="7f392c58-0736-4c53-a9a4-85270dec18cd" d="M222,159.24a2.84,2.84,0,0,1-2.89,3.08,2.76,2.76,0,0,1-2.78-3,2.83,2.83,0,0,1,2.88-3.08A2.75,2.75,0,0,1,222,159.24Zm-4.61.06c0,1.27.73,2.23,1.76,2.23s1.76-.95,1.76-2.25c0-1-.49-2.23-1.74-2.23S217.35,158.19,217.35,159.3Z" transform="translate(-81.5 -60.5)"/>
      <path class="7f392c58-0736-4c53-a9a4-85270dec18cd" d="M223.29,158c0-.6,0-1.09,0-1.57h.94l.06,1h0a2.13,2.13,0,0,1,1.92-1.09c.8,0,2.05.48,2.05,2.47v3.47h-1.06v-3.35c0-.94-.35-1.71-1.34-1.71a1.5,1.5,0,0,0-1.42,1.08,1.52,1.52,0,0,0-.07.49v3.49h-1.06Z" transform="translate(-81.5 -60.5)"/>
      <path class="7f392c58-0736-4c53-a9a4-85270dec18cd" d="M229.81,161.11a2.77,2.77,0,0,0,1.39.42c.77,0,1.13-.38,1.13-.86s-.3-.78-1.08-1.07c-1-.37-1.54-.95-1.54-1.64a1.79,1.79,0,0,1,2-1.7,2.9,2.9,0,0,1,1.43.36l-.26.77a2.26,2.26,0,0,0-1.19-.34c-.62,0-1,.36-1,.79s.35.7,1.1,1c1,.38,1.52.89,1.52,1.75,0,1-.79,1.74-2.17,1.74a3.31,3.31,0,0,1-1.63-.4Z" transform="translate(-81.5 -60.5)"/>
    </g>
    <g>
      <path class="7f392c58-0736-4c53-a9a4-85270dec18cd" d="M380.56,158.64c-.06-1.13-.13-2.48-.12-3.49h0c-.28.95-.61,2-1,3.07L378,162.14h-.79l-1.31-3.85c-.38-1.14-.71-2.18-.94-3.14h0c0,1-.08,2.36-.16,3.57l-.22,3.47h-1l.56-8.08h1.33L376.8,158c.34,1,.61,1.88.82,2.72h0c.2-.82.49-1.7.85-2.72l1.44-3.91h1.33l.5,8.08h-1Z" transform="translate(-81.5 -60.5)"/>
      <path class="7f392c58-0736-4c53-a9a4-85270dec18cd" d="M390.06,163.37c-1.09-.29-2.16-.61-3.09-.94a1.55,1.55,0,0,0-.49-.12c-1.92-.07-3.56-1.49-3.56-4.09s1.58-4.26,3.77-4.26,3.62,1.7,3.62,4.09c0,2.08-1,3.41-2.3,3.87v0c.8.2,1.68.4,2.36.52Zm-.86-5.27c0-1.62-.84-3.29-2.55-3.29S384,156.45,384,158.2s.94,3.26,2.57,3.26S389.2,160,389.2,158.11Z" transform="translate(-81.5 -60.5)"/>
      <path class="7f392c58-0736-4c53-a9a4-85270dec18cd" d="M392.9,155h-2.46v-.89h6V155H394v7.2H392.9Z" transform="translate(-81.5 -60.5)"/>
      <path class="7f392c58-0736-4c53-a9a4-85270dec18cd" d="M399.32,155h-2.46v-.89h6V155h-2.47v7.2h-1.05Z" transform="translate(-81.5 -60.5)"/>
    </g>
  </g>
</svg>
